<svg width="123" height="101" viewBox="0 0 123 101" fill="none" xmlns="http://www.w3.org/2000/svg">
<mask id="path-1-inside-1_531_105" fill="white">
<path fill-rule="evenodd" clip-rule="evenodd" d="M72.7486 0.0412175L122.164 49.4565L106.367 65.2536L106.362 65.2491L71.4765 100.135L56.0743 84.7326L87.3079 53.4991C78.8704 57.5891 68.4555 61.3314 57.3444 62.3045C52.3093 62.7454 45.6989 62.0309 39.8849 60.7597C37.1424 60.264 34.3497 59.4427 31.5067 58.2958C31.4206 58.2614 31.3353 58.2269 31.251 58.1923C27.2394 56.5832 23.1459 54.1414 18.9703 50.8667C18.7615 50.703 18.5525 50.5372 18.3434 50.3693C16.0419 48.5222 13.7155 46.4231 11.3644 44.0719C9.71638 42.4239 8.16604 40.7535 6.71334 39.0607L6.71356 39.0605C4.43891 36.4097 2.40368 33.704 0.607834 30.9434L22.7359 8.81538C25.1886 14.6828 29.7219 20.9222 36.3346 27.535C43.8288 35.0291 51.9662 40.2043 56.6943 42.4183C66.4918 47.0062 77.7009 47.1914 87.1051 45.9919L56.9514 15.8383L72.7486 0.0412175Z"/>
</mask>
<path fill-rule="evenodd" clip-rule="evenodd" d="M72.7486 0.0412175L122.164 49.4565L106.367 65.2536L106.362 65.2491L71.4765 100.135L56.0743 84.7326L87.3079 53.4991C78.8704 57.5891 68.4555 61.3314 57.3444 62.3045C52.3093 62.7454 45.6989 62.0309 39.8849 60.7597C37.1424 60.264 34.3497 59.4427 31.5067 58.2958C31.4206 58.2614 31.3353 58.2269 31.251 58.1923C27.2394 56.5832 23.1459 54.1414 18.9703 50.8667C18.7615 50.703 18.5525 50.5372 18.3434 50.3693C16.0419 48.5222 13.7155 46.4231 11.3644 44.0719C9.71638 42.4239 8.16604 40.7535 6.71334 39.0607L6.71356 39.0605C4.43891 36.4097 2.40368 33.704 0.607834 30.9434L22.7359 8.81538C25.1886 14.6828 29.7219 20.9222 36.3346 27.535C43.8288 35.0291 51.9662 40.2043 56.6943 42.4183C66.4918 47.0062 77.7009 47.1914 87.1051 45.9919L56.9514 15.8383L72.7486 0.0412175Z" fill="#0D0DB3"/>
<path d="M21.9972 8.37497C23.2411 11.5198 25.0761 14.7615 27.4958 18.1001L28.3726 17.5796C25.9894 14.2915 24.1954 11.1168 22.9843 8.05512L21.9972 8.37497ZM122.164 49.4565L122.941 50.0933L123.578 49.4565L122.941 48.8197L122.164 49.4565ZM72.7486 0.0412175L73.526 -0.595592L72.7486 -1.37299L71.9712 -0.595592L72.7486 0.0412175ZM106.367 65.2536L105.59 65.8905L106.367 66.6677L107.144 65.8904L106.367 65.2536ZM106.362 65.2491L107.14 64.6122L106.362 63.835L105.585 64.6123L106.362 65.2491ZM71.4765 100.135L70.6991 100.772L71.4765 101.549L72.2539 100.772L71.4765 100.135ZM56.0743 84.7326L55.2969 84.0958L54.66 84.7326L55.2969 85.3694L56.0743 84.7326ZM87.3079 53.4991L88.0853 54.1359L86.8128 52.6625L87.3079 53.4991ZM57.3444 62.3045L57.2434 61.3599L57.3444 62.3045ZM39.8849 60.7597L40.1312 59.8372L40.1108 59.8328L40.0903 59.8291L39.8849 60.7597ZM31.5067 58.2958L31.9336 57.429L31.9301 57.4276L31.5067 58.2958ZM31.251 58.1923L31.6836 57.3278L31.6758 57.3247L31.251 58.1923ZM18.9703 50.8667L19.6569 50.1495L19.6569 50.1495L18.9703 50.8667ZM18.3434 50.3693L19.039 49.6593L19.039 49.6593L18.3434 50.3693ZM11.3644 44.0719L12.1418 43.4351L11.3644 44.0719ZM6.71334 39.0607L5.9354 38.4244L5.34613 39.0146L5.88524 39.6428L6.71334 39.0607ZM6.71356 39.0605L7.4915 39.6967L8.08075 39.1066L7.54168 38.4784L6.71356 39.0605ZM0.607834 30.9434L-0.169568 30.3066L-0.686752 30.8238L-0.295717 31.4249L0.607834 30.9434ZM22.7359 8.81538L23.7166 8.47957L23.1096 7.02749L21.9585 8.17858L22.7359 8.81538ZM36.3346 27.535L35.5572 28.1718L36.3346 27.535ZM56.6943 42.4183L56.2125 43.2612L56.6943 42.4183ZM87.1051 45.9919L87.2514 46.9316L89.2093 46.6819L87.8825 45.3551L87.1051 45.9919ZM56.9514 15.8383L56.174 15.2015L55.5372 15.8383L56.174 16.4751L56.9514 15.8383ZM122.941 48.8197L73.526 -0.595592L71.9712 0.678028L121.387 50.0933L122.941 48.8197ZM107.144 65.8904L122.941 50.0933L121.387 48.8197L105.589 64.6168L107.144 65.8904ZM105.585 65.886L105.59 65.8905L107.144 64.6167L107.14 64.6122L105.585 65.886ZM72.2539 100.772L107.14 65.8859L105.585 64.6123L70.6991 99.498L72.2539 100.772ZM55.2969 85.3694L70.6991 100.772L72.2539 99.498L56.8517 84.0958L55.2969 85.3694ZM86.5305 52.8623L55.2969 84.0958L56.8517 85.3694L88.0853 54.1359L86.5305 52.8623ZM57.4454 63.249C68.7417 62.2598 79.2936 58.4605 87.8029 54.3357L86.8128 52.6625C78.4473 56.7177 68.1693 60.403 57.2434 61.3599L57.4454 63.249ZM39.6387 61.6821C45.5162 62.9672 52.252 63.7039 57.4454 63.249L57.2434 61.3599C52.3667 61.787 45.8816 61.0945 40.1312 59.8372L39.6387 61.6821ZM31.0798 59.1625C33.9859 60.3349 36.8528 61.1793 39.6796 61.6903L40.0903 59.8291C37.432 59.3486 34.7134 58.5504 31.9335 57.429L31.0798 59.1625ZM30.8184 59.0568C30.9059 59.0926 30.9942 59.1283 31.0833 59.1639L31.9301 57.4276C31.847 57.3944 31.7648 57.3611 31.6835 57.3278L30.8184 59.0568ZM18.2837 51.5839C22.5184 54.905 26.6987 57.4043 30.8261 59.0599L31.6758 57.3247C27.7802 55.7621 23.7733 53.3778 19.6569 50.1495L18.2837 51.5839ZM17.6477 51.0793C17.8598 51.2496 18.0718 51.4178 18.2837 51.5839L19.6569 50.1495C19.4512 49.9882 19.2453 49.8248 19.039 49.6593L17.6477 51.0793ZM10.587 44.7087C12.9604 47.0822 15.3139 49.2063 17.6477 51.0793L19.039 49.6593C16.7698 47.8381 14.4706 45.764 12.1418 43.4351L10.587 44.7087ZM5.88524 39.6428C7.35466 41.3551 8.92198 43.0437 10.587 44.7087L12.1418 43.4351C10.5108 41.8041 8.97742 40.1519 7.54144 38.4786L5.88524 39.6428ZM5.93562 38.4242L5.9354 38.4244L7.49128 39.697L7.4915 39.6967L5.93562 38.4242ZM-0.295717 31.4249C1.52392 34.2221 3.5846 36.9613 5.88545 39.6426L7.54168 38.4784C5.29322 35.8582 3.28343 33.186 1.51139 30.4619L-0.295717 31.4249ZM21.9585 8.17858L-0.169568 30.3066L1.38524 31.5802L23.5133 9.45219L21.9585 8.17858ZM37.112 26.8981C30.553 20.3391 26.1077 14.1998 23.7166 8.47957L21.7552 9.15119C24.2694 15.1658 28.8908 21.5053 35.5572 28.1718L37.112 26.8981ZM57.1761 41.5754C52.5652 39.4163 44.5266 34.3127 37.112 26.8981L35.5572 28.1718C43.131 35.7455 51.3672 40.9923 56.2125 43.2612L57.1761 41.5754ZM86.9588 45.0522C77.6585 46.2384 66.7 46.0352 57.1761 41.5754L56.2125 43.2612C66.2836 47.9772 77.7433 48.1444 87.2514 46.9316L86.9588 45.0522ZM56.174 16.4751L86.3277 46.6287L87.8825 45.3551L57.7288 15.2015L56.174 16.4751ZM71.9712 -0.595592L56.174 15.2015L57.7288 16.4751L73.526 0.678027L71.9712 -0.595592Z" fill="#08080A" mask="url(#path-1-inside-1_531_105)"/>
</svg>
