<svg width="95" height="78" viewBox="0 0 95 78" fill="none" xmlns="http://www.w3.org/2000/svg">
<mask id="path-1-inside-1_737_2331" fill="white">
<path fill-rule="evenodd" clip-rule="evenodd" d="M38.5691 0.148674L0.237023 38.4807L12.491 50.7347L12.4953 50.7305L39.5565 77.7916L51.5042 65.844L27.2821 41.6219C33.8259 44.7934 41.9025 47.6947 50.5186 48.4492C54.4324 48.792 59.5731 48.2347 64.0897 47.2449C66.1425 46.8717 68.2316 46.2635 70.3569 45.4202C70.4938 45.3669 70.6281 45.3133 70.7596 45.2594C75.7385 43.2623 80.8803 39.6115 86.1849 34.3068C89.4653 31.0264 92.247 27.6314 94.5299 24.1221L77.3649 6.9571C76.4193 9.21908 75.0751 11.5523 73.3324 13.957L73.332 13.9566C71.5683 16.39 69.3965 18.8966 66.8166 21.4764C66.72 21.573 66.6236 21.6692 66.5275 21.7649C60.7949 27.4235 54.6299 31.3342 51.0229 33.0233C43.4221 36.5825 34.7261 36.7259 27.4307 35.7951L50.8232 12.4027L38.5691 0.148674Z"/>
</mask>
<path fill-rule="evenodd" clip-rule="evenodd" d="M38.5691 0.148674L0.237023 38.4807L12.491 50.7347L12.4953 50.7305L39.5565 77.7916L51.5042 65.844L27.2821 41.6219C33.8259 44.7934 41.9025 47.6947 50.5186 48.4492C54.4324 48.792 59.5731 48.2347 64.0897 47.2449C66.1425 46.8717 68.2316 46.2635 70.3569 45.4202C70.4938 45.3669 70.6281 45.3133 70.7596 45.2594C75.7385 43.2623 80.8803 39.6115 86.1849 34.3068C89.4653 31.0264 92.247 27.6314 94.5299 24.1221L77.3649 6.9571C76.4193 9.21908 75.0751 11.5523 73.3324 13.957L73.332 13.9566C71.5683 16.39 69.3965 18.8966 66.8166 21.4764C66.72 21.573 66.6236 21.6692 66.5275 21.7649C60.7949 27.4235 54.6299 31.3342 51.0229 33.0233C43.4221 36.5825 34.7261 36.7259 27.4307 35.7951L50.8232 12.4027L38.5691 0.148674Z" fill="#0D0DB3"/>
<path d="M78.0216 6.67255C77.0512 9.12588 75.6213 11.6508 73.7393 14.2475L72.9246 13.6656C74.7683 11.1218 76.1535 8.6695 77.0874 6.30839L78.0216 6.67255ZM0.237023 38.4807L-0.475247 39.1827L-1.17719 38.4807L-0.475245 37.7788L0.237023 38.4807ZM38.5691 0.148674L37.8569 -0.553269L38.5691 -1.26554L39.2814 -0.55327L38.5691 0.148674ZM12.491 50.7347L13.2032 51.4368L12.4909 52.1488L11.7788 51.4367L12.491 50.7347ZM12.4953 50.7305L11.7831 50.0284L12.4954 49.3164L13.2076 50.0285L12.4953 50.7305ZM39.5565 77.7916L40.2688 78.4936L39.5565 79.2058L38.8443 78.4936L39.5565 77.7916ZM51.5042 65.844L52.2165 65.142L52.9184 65.844L52.2165 66.5459L51.5042 65.844ZM27.2821 41.6219L26.5698 42.3239L27.7224 40.7266L27.2821 41.6219ZM50.5186 48.4492L50.6068 47.4567L50.5186 48.4492ZM64.0897 47.2449L63.8733 46.272L63.8911 46.2681L63.9089 46.2648L64.0897 47.2449ZM70.3569 45.4202L69.9844 44.495L69.9903 44.4927L70.3569 45.4202ZM70.7596 45.2594L70.3766 44.3384L70.3836 44.3356L70.7596 45.2594ZM86.1849 34.3068L85.4726 33.6049L86.1849 34.3068ZM94.5299 24.1221L95.2421 23.4201L95.8111 23.9891L95.373 24.6626L94.5299 24.1221ZM77.3649 6.9571L76.4379 6.57522L77.0155 5.19349L78.0772 6.25516L77.3649 6.9571ZM73.3324 13.957L74.1471 14.5389L73.4555 15.4933L72.6206 14.6594L73.3324 13.957ZM73.332 13.9566L72.5173 13.3747L73.2089 12.4203L74.0438 13.2542L73.332 13.9566ZM66.8166 21.4764L66.1044 20.7744L66.1044 20.7744L66.8166 21.4764ZM66.5275 21.7649L67.2383 22.4684L67.2352 22.4714L66.5275 21.7649ZM51.0229 33.0233L50.5947 32.1222L51.0229 33.0233ZM27.4307 35.7951L27.3028 36.7833L25.2856 36.526L26.7184 35.0932L27.4307 35.7951ZM50.8232 12.4027L51.5354 11.7007L52.2374 12.4027L51.5354 13.1046L50.8232 12.4027ZM-0.475245 37.7788L37.8569 -0.553269L39.2814 0.850615L0.949296 39.1827L-0.475245 37.7788ZM11.7788 51.4367L-0.475247 39.1827L0.949299 37.7788L13.2033 50.0328L11.7788 51.4367ZM13.2075 51.4325L13.2032 51.4368L11.7789 50.0327L11.7831 50.0284L13.2075 51.4325ZM38.8443 78.4936L11.783 51.4324L13.2076 50.0285L40.2688 77.0897L38.8443 78.4936ZM52.2165 66.5459L40.2688 78.4936L38.8442 77.0897L50.7919 65.142L52.2165 66.5459ZM27.9943 40.92L52.2165 65.142L50.7919 66.5459L26.5698 42.3239L27.9943 40.92ZM50.4304 49.4417C41.652 48.6729 33.4532 45.7215 26.8418 42.5173L27.7224 40.7266C34.1987 43.8653 42.1529 46.7164 50.6068 47.4567L50.4304 49.4417ZM64.306 48.2178C59.7329 49.22 54.4825 49.7966 50.4304 49.4417L50.6068 47.4567C54.3822 47.7874 59.4133 47.2494 63.8733 46.272L64.306 48.2178ZM70.7294 46.3454C68.5481 47.2109 66.3948 47.8388 64.2704 48.2249L63.9089 46.2648C65.8902 45.9047 67.9151 45.3161 69.9844 44.4951L70.7294 46.3454ZM71.1426 46.1803C71.0054 46.2365 70.8657 46.2924 70.7235 46.3477L69.9903 44.4927C70.1219 44.4415 70.2507 44.39 70.3766 44.3384L71.1426 46.1803ZM86.8971 35.0088C81.5326 40.3734 76.2804 44.1195 71.1356 46.1831L70.3836 44.3356C75.1966 42.4051 80.2279 38.8496 85.4726 33.6049L86.8971 35.0088ZM95.373 24.6626C93.0485 28.2359 90.2216 31.6843 86.8971 35.0088L85.4726 33.6049C88.709 30.3685 91.4454 27.027 93.6868 23.5816L95.373 24.6626ZM78.0772 6.25516L95.2421 23.4201L93.8176 24.824L76.6526 7.65905L78.0772 6.25516ZM72.5177 13.3751C74.2244 11.0201 75.5273 8.75354 76.4379 6.57522L78.2919 7.33899C77.3113 9.68462 75.9258 12.0845 74.1471 14.5389L72.5177 13.3751ZM74.0438 13.2542L74.0443 13.2546L72.6206 14.6594L72.6201 14.6589L74.0438 13.2542ZM66.1044 20.7744C68.6545 18.2243 70.7902 15.7576 72.5173 13.3747L74.1467 14.5385C72.3464 17.0224 70.1384 19.5688 67.5289 22.1783L66.1044 20.7744ZM65.8167 21.0615C65.9124 20.9662 66.0082 20.8706 66.1044 20.7744L67.5289 22.1783C67.4318 22.2754 67.3349 22.3721 67.2383 22.4684L65.8167 21.0615ZM50.5947 32.1222C54.095 30.4831 60.1661 26.6391 65.8198 21.0584L67.2352 22.4714C61.4237 28.2078 55.1648 32.1854 51.4511 33.9244L50.5947 32.1222ZM27.5586 34.8069C34.7652 35.7263 43.2407 35.5659 50.5947 32.1222L51.4511 33.9244C43.6035 37.5992 34.687 37.7254 27.3028 36.7833L27.5586 34.8069ZM51.5354 13.1046L28.143 36.497L26.7184 35.0932L50.1109 11.7007L51.5354 13.1046ZM39.2814 -0.55327L51.5354 11.7007L50.1109 13.1046L37.8569 0.850616L39.2814 -0.55327Z" fill="#08080A" mask="url(#path-1-inside-1_737_2331)"/>
</svg>
