<svg width="19" height="18" viewBox="0 0 19 18" fill="none" xmlns="http://www.w3.org/2000/svg">
<path fill-rule="evenodd" clip-rule="evenodd" d="M17.0876 17.7587C17.3899 18.061 17.8801 18.061 18.1825 17.7587C18.4848 17.4563 18.4848 16.9661 18.1825 16.6638L11.066 9.54733L18.7298 1.88355C19.0321 1.58121 19.0321 1.09102 18.7298 0.788678C18.4275 0.486337 17.9373 0.486337 17.6349 0.788678L9.97115 8.45246L2.30678 0.788093C2.00444 0.485752 1.51425 0.485751 1.21191 0.788093C0.909566 1.09043 0.909566 1.58063 1.21191 1.88297L8.87627 9.54733L1.75924 16.6644C1.4569 16.9667 1.4569 17.4569 1.75924 17.7592C2.06158 18.0616 2.55177 18.0616 2.85412 17.7592L9.97115 10.6422L17.0876 17.7587Z" fill="#ACE231"/>
</svg>
