<svg width="32" height="32" viewBox="0 0 32 32" fill="none" xmlns="http://www.w3.org/2000/svg">
<path fill-rule="evenodd" clip-rule="evenodd" d="M15.8018 11.6886C14.608 5.23858 22.1683 1.40173 26.6235 6.05547C26.6235 6.05547 28.6124 5.48397 30.3632 4.34099C30.3632 4.34099 29.7265 6.54516 27.5781 7.93354C27.5781 7.93354 29.9657 7.60745 31 6.95416C31 6.95416 29.9657 9.15832 28.0554 9.97521C29.0897 24.7522 13.5725 33.7325 1 26.3849C1 26.3849 7.20708 26.711 9.83278 23.6092C9.83278 23.6092 6.01329 23.9353 4.103 19.2009C4.103 19.2009 5.53491 19.7724 6.96789 19.0373C6.96789 19.0373 2.51164 18.3022 2.11406 12.8327C2.11406 12.8327 3.54597 13.9757 5.13841 13.5678C5.13841 13.5678 0.204856 10.5467 2.99002 5.07719C2.99002 5.07608 8.24249 11.934 15.8018 11.6886Z" fill="#ACE231"/>
</svg>
