<svg width="32" height="32" viewBox="0 0 32 32" fill="none" xmlns="http://www.w3.org/2000/svg">
<path fill-rule="evenodd" clip-rule="evenodd" d="M8.62992 0H23.3701C28.1052 0 32 3.90421 32 8.6507V23.3493C32 28.0958 28.1052 32 23.3701 32H8.62992C3.89483 32 0 28.0958 0 23.3493V8.6507C0 3.90421 3.89594 0 8.62992 0ZM24.5926 5.58877C25.5855 5.58877 26.4258 6.43106 26.4258 7.42638C26.4258 8.4217 25.5855 9.26398 24.5926 9.26398C23.5239 9.26398 22.7594 8.4217 22.7594 7.42638C22.7594 6.42994 23.5228 5.58877 24.5926 5.58877ZM15.9616 7.27222H16.0384C20.7735 7.27222 24.7453 11.2535 24.7453 16C24.7453 20.8225 20.7735 24.7278 16.0384 24.7278H15.9616C11.2265 24.7278 7.33164 20.8236 7.33164 16C7.33164 11.2535 11.2276 7.27222 15.9616 7.27222ZM15.9616 10.2582H16.0384C19.1699 10.2582 21.7665 12.861 21.7665 16C21.7665 19.215 19.1699 21.8178 16.0384 21.8178H15.9616C12.8301 21.8178 10.2335 19.215 10.2335 16C10.2347 12.861 12.8312 10.2582 15.9616 10.2582ZM8.70681 2.75585H23.2932C26.5773 2.75585 29.2497 5.43573 29.2497 8.72666V23.2722C29.2497 26.5643 26.5762 29.243 23.2932 29.243H8.70681C5.42267 29.243 2.75034 26.5632 2.75034 23.2722V8.72666C2.75034 5.43462 5.42267 2.75585 8.70681 2.75585Z" fill="#ACE231"/>
</svg>
