<svg width="130" height="20" viewBox="0 0 130 20" fill="none" xmlns="http://www.w3.org/2000/svg">
<g clip-path="url(#clip0_755_3062)">
<path d="M3.93566 18.9445H0.0078125V0.950211H3.93566V18.9445ZM14.3837 18.9445H1.10761V15.3187H14.3837V18.9445ZM20.6782 18.9445H16.7503V0.950211H20.6782V18.9445ZM31.5976 18.9445H17.8501V15.3187H31.5976V18.9445ZM31.2048 11.693H17.8501V8.0942H31.2048V11.693ZM31.5976 4.57592H17.8501V0.950211H31.5976V4.57592ZM38.0855 18.9445H34.1576V0.950211H38.3473L44.6319 9.46391L47.0409 13.2508H47.329L47.1457 9.62505V0.950211H51.0735V18.9445H46.8839L40.416 10.3502L38.1903 6.9662H37.9283L38.0855 10.2696V18.9445ZM78.9351 18.9445H75.0073V0.950211H84.6959C86.1448 0.950211 87.3756 1.16507 88.3881 1.59478C89.4007 2.00659 90.1687 2.61535 90.6924 3.42107C91.2161 4.22677 91.4781 5.20258 91.4781 6.34849C91.4781 7.33324 91.2947 8.17477 90.9281 8.87305C90.5615 9.57134 90.0116 10.1353 89.2785 10.565C88.5452 10.9769 87.6288 11.2365 86.529 11.3439V11.5588C87.3145 11.7736 87.8993 12.0959 88.2834 12.5256C88.6674 12.9554 89.0253 13.4836 89.357 14.1102L91.897 18.9445H87.3407L84.9316 14.2713C84.6872 13.8058 84.4341 13.4388 84.1722 13.1702C83.9104 12.9016 83.5699 12.7136 83.151 12.6062C82.7495 12.4809 82.2083 12.4182 81.5275 12.4182H78.9351V18.9445ZM78.9351 4.57592V9.38334H84.6697C85.5949 9.38334 86.2758 9.2222 86.7122 8.89991C87.1487 8.55972 87.3668 7.91515 87.3668 6.9662C87.3668 6.07097 87.1487 5.45325 86.7122 5.11306C86.2758 4.75496 85.5949 4.57592 84.6697 4.57592H78.9351ZM97.8512 18.9445H93.9233V0.950211H97.8512V18.9445ZM108.771 18.9445H95.0231V15.3187H108.771V18.9445ZM108.378 11.693H95.0231V8.0942H108.378V11.693ZM108.771 4.57592H95.0231V0.950211H108.771V4.57592ZM120.364 19.2131C118.444 19.2131 116.768 18.837 115.337 18.0851C113.923 17.3151 112.832 16.2409 112.064 14.8622C111.313 13.4657 110.938 11.8273 110.938 9.94734C110.938 8.06734 111.313 6.43801 112.064 5.05935C112.832 3.66277 113.923 2.58849 115.337 1.83649C116.768 1.06659 118.444 0.681641 120.364 0.681641C122.355 0.681641 124.056 1.06659 125.471 1.83649C126.885 2.58849 127.976 3.66277 128.745 5.05935C129.512 6.43801 129.896 8.06734 129.896 9.94734C129.896 11.8273 129.512 13.4657 128.745 14.8622C127.976 16.2409 126.885 17.3151 125.471 18.0851C124.056 18.837 122.355 19.2131 120.364 19.2131ZM120.364 15.3456C121.656 15.3456 122.687 15.1756 123.455 14.8353C124.241 14.4772 124.807 13.9043 125.157 13.1164C125.524 12.3287 125.707 11.2723 125.707 9.94734C125.707 8.60448 125.524 7.54811 125.157 6.7782C124.807 5.99039 124.241 5.42639 123.455 5.0862C122.687 4.72811 121.656 4.54906 120.364 4.54906C119.09 4.54906 118.069 4.72811 117.301 5.0862C116.533 5.42639 115.974 5.99039 115.625 6.7782C115.276 7.54811 115.101 8.60448 115.101 9.94734C115.101 11.2723 115.276 12.3287 115.625 13.1164C115.974 13.9043 116.533 14.4772 117.301 14.8353C118.069 15.1756 119.09 15.3456 120.364 15.3456Z" fill="white"/>
<path fill-rule="evenodd" clip-rule="evenodd" d="M61.6479 19.3205C59.8673 19.3205 58.3223 18.9444 57.0131 18.1925C55.7212 17.4226 54.7262 16.3483 54.0279 14.9696C53.3296 13.5731 52.9805 11.9348 52.9805 10.0548C52.9805 8.17476 53.3733 6.54543 54.1588 5.16677C54.9444 3.77019 56.0617 2.69591 57.5106 1.94392C58.977 1.17401 60.714 0.789063 62.7215 0.789063C64.5545 0.789063 66.1431 1.07554 67.4874 1.64849C68.3623 2.00976 69.1077 2.47343 69.7238 3.03951L67.0261 6.30884C66.8433 5.94632 66.5781 5.6462 66.2304 5.40848C65.4972 4.90715 64.2927 4.65649 62.6168 4.65649C61.2901 4.65649 60.2252 4.83554 59.4221 5.19362C58.6366 5.53381 58.0605 6.09781 57.6939 6.88562C57.3273 7.65553 57.144 8.71191 57.144 10.0548C57.144 11.3797 57.3186 12.4361 57.6677 13.2239C58.0168 14.0117 58.5755 14.5847 59.3436 14.9427C60.1292 15.283 61.1591 15.453 62.4335 15.453C63.8301 15.453 65.0705 15.177 65.7174 14.9427C67.0578 14.4573 68.1195 13.4301 68.884 12.442H63.2663V9.49813H72.4751V12.442H72.475V18.9434H69.6047V13.116C69.1996 14.2849 68.5773 15.607 67.6309 16.7351C67.2033 17.2447 66.522 17.7934 65.8625 18.2164C65.5512 18.4327 65.2024 18.6217 64.8164 18.7833C63.9784 19.1414 62.9223 19.3205 61.6479 19.3205Z" fill="white"/>
</g>
<defs>
<clipPath id="clip0_755_3062">
<rect width="130" height="20" fill="white"/>
</clipPath>
</defs>
</svg>
