<svg width="32" height="32" viewBox="0 0 32 32" fill="none" xmlns="http://www.w3.org/2000/svg">
<path d="M24.748 19.5442C23.2787 19.5442 21.9013 18.9216 20.6493 17.9082L20.9533 16.4736L20.964 16.4176C21.24 14.8936 22.096 12.3376 24.7493 12.3376C25.705 12.3383 26.6212 12.7182 27.297 13.394C27.9727 14.0697 28.3526 14.986 28.3533 15.9416C28.3516 16.897 27.9711 17.8127 27.2952 18.488C26.6194 19.1634 25.7034 19.5432 24.748 19.5442ZM24.748 8.69092C21.3627 8.69092 18.7347 10.8896 17.668 14.5122C16.0413 12.0669 14.804 9.13092 14.0853 6.65625H10.4373V16.1389C10.4363 17.0394 10.0782 17.9027 9.44158 18.5396C8.80497 19.1764 7.94181 19.5348 7.04133 19.5362C6.14121 19.5345 5.27853 19.1759 4.64242 18.539C4.00631 17.9021 3.6487 17.039 3.648 16.1389V6.65625H0V16.1389C0 20.0242 3.16 23.2096 7.04133 23.2096C10.9253 23.2096 14.0853 20.0242 14.0853 16.1389V14.5522C14.7907 16.0282 15.6613 17.5242 16.7173 18.8469L14.4867 29.3442H18.216L19.8333 21.7309C21.2507 22.6362 22.88 23.2096 24.748 23.2096C28.748 23.2096 32 19.9402 32 15.9429C32 11.9429 28.748 8.69092 24.748 8.69092Z" fill="#ACE231"/>
</svg>
